<svg width="43" height="35" viewBox="0 0 43 35" fill="none" xmlns="http://www.w3.org/2000/svg">
<path d="M0.5 2.74996C0.5 2.09797 0.776562 1.47268 1.26885 1.01166C1.76113 0.550629 2.42881 0.291626 3.125 0.291626H39.875C40.5712 0.291626 41.2389 0.550629 41.7312 1.01166C42.2234 1.47268 42.5 2.09797 42.5 2.74996C42.5 3.40195 42.2234 4.02724 41.7312 4.48826C41.2389 4.94929 40.5712 5.20829 39.875 5.20829H3.125C2.42881 5.20829 1.76113 4.94929 1.26885 4.48826C0.776562 4.02724 0.5 3.40195 0.5 2.74996Z" fill="white"/>
<path d="M0.5 32.25C0.5 31.598 0.776562 30.9727 1.26885 30.5117C1.76113 30.0506 2.42881 29.7916 3.125 29.7916H39.875C40.5712 29.7916 41.2389 30.0506 41.7312 30.5117C42.2234 30.9727 42.5 31.598 42.5 32.25C42.5 32.902 42.2234 33.5272 41.7312 33.9883C41.2389 34.4493 40.5712 34.7083 39.875 34.7083H3.125C2.42881 34.7083 1.76113 34.4493 1.26885 33.9883C0.776562 33.5272 0.5 32.902 0.5 32.25Z" fill="white"/>
<path d="M18.875 15.0416C18.1788 15.0416 17.5111 15.3006 17.0188 15.7617C16.5266 16.2227 16.25 16.848 16.25 17.5C16.25 18.1519 16.5266 18.7772 17.0188 19.2383C17.5111 19.6993 18.1788 19.9583 18.875 19.9583H39.875C40.5712 19.9583 41.2389 19.6993 41.7312 19.2383C42.2234 18.7772 42.5 18.1519 42.5 17.5C42.5 16.848 42.2234 16.2227 41.7312 15.7617C41.2389 15.3006 40.5712 15.0416 39.875 15.0416H18.875Z" fill="white"/>
</svg>
