<svg width="259" height="362" viewBox="0 0 259 362" fill="none" xmlns="http://www.w3.org/2000/svg">
<path d="M127.423 205.619L119.828 237.349C118.898 241.203 118.225 245.032 117.963 248.982C117.714 252.886 117.721 256.766 118.166 260.674L124.058 313.155L124.732 322.898L144.18 321.582L143.506 311.84L142.322 259.047C142.26 256.543 142.532 254.087 142.895 251.658C143.258 249.229 143.942 246.894 144.73 244.54L155.161 213.64L159.175 199.752L131.424 191.777L127.423 205.619Z" fill="#CBC2E6"/>
<path d="M92.4881 192.246L66.1301 241.438C63.4411 246.426 61.8155 251.843 61.6353 257.368C61.4803 262.83 62.3264 268.331 64.6248 273.472L81.994 311.605L85.7031 320.657L103.738 313.261L100.029 304.21L85.7027 264.828C85.0222 262.992 84.9927 260.981 85.2134 259.07C85.4091 257.223 86.2179 255.476 87.2518 253.893L117.344 206.893L124.664 194.425L99.7458 179.753L92.4881 192.246Z" fill="#CBC2E6"/>
<path d="M129.358 340.498L128.858 335.963L128.745 329.075L142.491 328.817L142.604 335.705L141.927 344.438L142.024 349.229L122.615 352.74L118.117 353.889L115.83 344.876L120.327 343.728L129.358 340.498Z" fill="#FF5784"/>
<path d="M116.762 359.869L141.56 354.819C142.381 354.669 142.896 353.888 142.719 353.06C142.541 352.233 141.763 351.723 140.941 351.873L116.144 356.922C115.322 357.072 114.807 357.854 114.985 358.681C115.162 359.509 115.941 360.019 116.762 359.869Z" fill="#CBC2E6"/>
<path d="M128.448 335.706C129.539 335.826 130.693 335.71 131.784 335.83C132.589 335.931 133.343 335.359 133.447 334.505C133.548 333.699 132.976 332.944 132.123 332.84C131.032 332.72 129.926 332.839 128.835 332.719C128.03 332.619 127.276 333.191 127.175 333.997C127.024 334.848 127.595 335.602 128.448 335.706Z" fill="#CBC2E6"/>
<path d="M128.59 340.831C129.716 341.144 130.835 341.552 132.012 341.821C132.811 342.017 133.606 341.543 133.802 340.743C133.998 339.943 133.525 339.147 132.726 338.951C131.597 338.686 130.477 338.277 129.398 337.967C128.599 337.771 127.804 338.245 127.564 338.994C127.32 339.791 127.794 340.587 128.59 340.831Z" fill="#CBC2E6"/>
<path d="M94.1621 337.401L92.2978 333.237L90.08 326.714L103.083 322.257L105.301 328.78L107.333 337.302L108.893 341.834L91.4948 351.122L87.5662 353.593L82.6282 345.713L86.5567 343.242L94.1621 337.401Z" fill="#FF5784"/>
<path d="M88.1165 359.7L110.174 347.293C110.91 346.899 111.16 345.997 110.738 345.263C110.315 344.53 109.419 344.282 108.682 344.677L86.6253 357.084C85.8893 357.478 85.6385 358.381 86.061 359.114C86.4835 359.848 87.3805 360.095 88.1165 359.7Z" fill="#CBC2E6"/>
<path d="M91.8367 333.139C92.9116 332.919 93.9747 332.455 95.0496 332.235C95.8471 332.084 96.3896 331.308 96.2269 330.463C96.0757 329.665 95.3006 329.121 94.4569 329.284C93.382 329.504 92.3652 329.956 91.2903 330.177C90.4927 330.328 89.9502 331.103 90.1013 331.902C90.264 332.747 91.0392 333.29 91.8367 333.139Z" fill="#CBC2E6"/>
<path d="M93.5286 337.928C94.6961 337.881 95.8868 337.926 97.089 337.822C97.9097 337.763 98.5217 337.069 98.4631 336.247C98.4044 335.425 97.7102 334.812 96.8894 334.87C95.7335 334.964 94.5427 334.918 93.4214 334.953C92.6007 335.012 91.9887 335.706 91.9895 336.493C92.0482 337.315 92.7541 337.974 93.5286 337.928Z" fill="#CBC2E6"/>
<path d="M90.5813 117.314C101.547 98.3083 125.782 91.8021 144.763 102.768C163.745 113.734 170.231 137.988 159.265 156.993L90.5813 117.314Z" fill="#FF5784"/>
<path d="M162.068 37.7145L170.716 25.7314C171.012 25.3615 170.938 24.7698 170.494 24.4739C170.125 24.178 169.533 24.252 169.238 24.6958L160.59 36.6789C160.294 37.0488 160.368 37.6405 160.812 37.9364C161.255 38.1583 161.773 38.0843 162.068 37.7145Z" fill="#CBC2E6"/>
<path d="M148.986 32.2413L154.677 4.28079C154.751 3.83697 154.455 3.31918 154.012 3.24521C153.569 3.17125 153.051 3.46712 152.977 3.91094L147.286 31.8715C147.212 32.3153 147.508 32.8331 147.951 32.9071C148.395 33.055 148.912 32.7591 148.986 32.2413Z" fill="#CBC2E6"/>
<path d="M134.056 29.8738L129.473 14.1923C129.325 13.7484 128.808 13.4526 128.364 13.6005C127.921 13.7484 127.625 14.2662 127.773 14.71L132.356 30.3916C132.504 30.8354 132.947 31.1313 133.464 30.9834C133.908 30.8354 134.204 30.3916 134.056 29.8738Z" fill="#CBC2E6"/>
<path d="M125.026 69.9219C121.131 78.2866 123.939 88.6505 132.998 89.2818C134.538 89.3871 136.214 88.9136 137.709 88.3349C141.106 86.9671 143.235 84.4418 144.82 81.3905C146.36 78.4445 147.356 75.0249 148.579 71.7632C148.761 71.2897 148.534 70.8162 148.081 70.6058C147.628 70.448 147.13 70.6584 146.949 71.1319C145.726 74.341 144.729 77.7079 143.28 80.6014C141.876 83.2845 140.019 85.5466 137.075 86.7566C135.852 87.2301 134.447 87.651 133.134 87.5458C125.298 86.9671 123.26 77.9184 126.611 70.6584C126.838 70.2375 126.611 69.7114 126.204 69.501C125.796 69.2906 125.253 69.501 125.026 69.9219Z" fill="#CBC2E6"/>
<path d="M147.793 72.3573C149.936 72.2833 152.375 71.7656 153.928 70.1382C156.515 67.5493 156.367 62.4454 152.597 60.966C151.193 60.3742 149.641 60.5961 148.162 60.7441C147.645 60.7441 147.275 61.1879 147.349 61.7057C147.349 62.2235 147.793 62.5933 148.31 62.5193C149.567 62.4454 150.823 62.1495 152.006 62.6673C154.593 63.7029 154.445 67.1794 152.745 69.0287C151.488 70.2862 149.567 70.656 147.867 70.73C147.349 70.73 146.98 71.1738 147.054 71.6176C146.906 71.9875 147.349 72.3573 147.793 72.3573Z" fill="#CBC2E6"/>
<path d="M151.256 57.8288C151.256 61.6752 138.987 70.9954 125.831 70.3297C113.931 69.6639 112.083 50.5058 125.831 47.0292C142.091 42.9609 151.256 57.8288 151.256 57.8288Z" fill="#CBC2E6"/>
<path d="M147.117 61.6011C148.3 61.5271 149.557 61.749 150.739 61.9709C153.77 62.6367 156.135 65.6694 153.769 68.6282C151.774 71.0692 144.013 71.9569 146.822 76.7649C148.744 80.0935 153.548 79.6497 156.652 78.984C164.117 77.2087 169.439 70.9213 170.548 63.6723C171.656 56.4232 165.448 48.9523 158.426 47.3989C152.365 46.0675 144.604 48.1386 143.052 54.7959L147.117 61.6011Z" fill="#CBC2E6"/>
<path d="M187.488 184.804C189.66 175.245 191.625 164.094 193.111 148.159C193.848 140.888 191.247 133.618 186.023 128.477C179.199 121.664 169.076 112.482 160.34 108.185C154.162 105.173 148.645 104.639 145.268 108.679C139.505 115.535 141.053 122.571 145.768 128.847C150.264 134.853 157.652 140.182 163.934 144.025C170.572 148.062 174.7 155.268 174.82 163.06C174.96 173.009 175.17 184.625 175.17 184.625C175.191 185.112 175.555 185.514 176.041 185.494C176.527 185.473 176.929 185.108 176.909 184.622C176.909 184.622 176.698 173.005 176.558 163.056C176.413 154.639 171.983 146.889 164.775 142.528C158.707 138.815 151.467 133.689 147.116 127.815C142.985 122.211 141.473 116.009 146.57 109.878C147.961 108.218 149.743 107.586 151.901 107.635C154.198 107.678 156.808 108.543 159.507 109.891C168.098 114.055 178.011 123.175 184.687 129.787C189.48 134.598 191.919 141.317 191.228 148.029C189.736 163.825 187.768 174.907 185.593 184.396C185.475 184.888 185.773 185.363 186.265 185.482C186.893 185.525 187.367 185.227 187.488 184.804Z" fill="#CBC2E6"/>
<path d="M175.998 183.728C170.255 185.376 165.306 189.163 162.971 194.849C162.326 196.47 161.842 199.451 162.611 201.435C162.871 202.243 163.325 202.893 163.993 203.318C164.662 203.742 165.459 203.988 166.532 203.81C168.503 203.545 169.399 202.292 169.937 200.784C170.326 199.521 170.425 198.023 170.707 196.872C171.308 194.219 172.975 192.113 175.571 191.239C176.051 191.096 176.281 190.585 176.139 190.104C175.996 189.624 175.486 189.393 175.006 189.536C171.776 190.578 169.725 193.221 169.007 196.493C168.724 197.644 168.667 199.009 168.277 200.272C167.99 201.202 167.479 201.918 166.339 202.076C165.747 202.112 165.328 202.055 164.95 201.866C164.414 201.482 164.18 200.827 164.053 200.06C163.799 198.526 164.154 196.67 164.569 195.56C166.674 190.386 171.213 186.983 176.41 185.456C176.89 185.313 177.12 184.802 177.044 184.342C176.968 183.881 176.478 183.585 175.998 183.728Z" fill="#CBC2E6"/>
<path d="M174.411 190.3C172.332 194.682 170.942 200.368 173.721 204.793C174.496 206.051 175.445 207.218 176.864 207.802C179.305 208.846 182.468 207.784 182.579 204.833C182.605 204.04 182.346 203.232 181.846 202.496C181.321 201.605 180.489 200.766 180.076 199.984C179.275 198.572 179.262 196.966 179.029 195.365C178.952 194.905 178.549 194.562 178.023 194.618C177.563 194.695 177.22 195.098 177.276 195.625C177.514 197.446 177.599 199.292 178.491 200.878C178.858 201.574 179.511 202.285 180.078 203.042C180.486 203.605 180.807 204.213 180.842 204.807C180.769 206.458 178.909 206.831 177.556 206.268C176.468 205.786 175.877 204.876 175.219 203.945C172.781 200.062 174.166 195.102 176.035 191.165C176.244 190.72 176.035 190.219 175.591 190.009C175.188 189.666 174.621 189.855 174.411 190.3Z" fill="#CBC2E6"/>
<path d="M177.342 195.648C178.948 198.692 180.203 200.753 183.87 201.594C184.754 201.794 186.005 201.743 186.941 201.304C187.702 200.956 188.26 200.328 188.46 199.443C188.599 198.758 188.364 198.103 187.911 197.453C187.436 196.87 186.742 196.291 186.359 195.882C185.344 194.695 184.85 193.232 184.376 191.703C184.234 191.222 183.744 190.925 183.263 191.068C182.783 191.211 182.486 191.702 182.629 192.183C183.107 193.932 183.739 195.656 184.978 197.058C185.295 197.447 185.831 197.831 186.259 198.327C186.463 198.608 186.754 198.844 186.672 199.11C186.616 199.529 186.268 199.713 185.854 199.876C185.287 200.065 184.648 200.014 184.163 199.937C181.093 199.281 180.13 197.454 178.82 194.866C178.59 194.431 178.059 194.267 177.625 194.497C177.277 194.681 177.113 195.213 177.342 195.648Z" fill="#CBC2E6"/>
<path d="M95.1523 190.035L132.278 212.807L159.139 199.623C163.501 184.898 159.31 176.765 151.098 168.718L106.016 167.434L95.1523 190.035Z" fill="#CBC2E6"/>
<path d="M147.44 73.3326C143.59 77.7843 144.36 85.1468 147.696 89.7698C149.493 92.2525 153 94.7352 156.165 93.1942C158.988 91.8245 158.133 86.7734 157.448 84.5476C157.277 83.9483 157.021 83.0066 156.507 82.5785C156.336 82.4073 156.764 82.921 156.935 83.0922C157.106 83.2634 157.277 83.5202 157.448 83.6915C157.876 84.2051 158.218 84.5476 158.731 84.9756C160.186 86.2598 162.666 87.5439 164.634 86.8591C166.773 86.0886 166.687 83.9483 165.746 82.1505C165.404 81.5512 164.976 80.9519 164.548 80.3527C164.292 80.0958 164.206 80.0102 163.864 79.7534C163.779 79.6678 163.351 79.5822 163.522 79.4966C166.259 78.9829 171.306 80.8663 171.991 76.5858C172.333 74.3599 170.28 72.4765 168.483 71.706C166.687 70.9355 164.634 70.8499 162.666 70.6787C160.613 70.5074 158.475 70.3362 156.507 70.6787L147.44 73.3326Z" fill="#CBC2E6"/>
<path d="M124.942 68.3677C122.547 67.7684 119.724 68.1109 117.414 68.8814C116.216 69.3094 114.762 70.0799 114.506 71.4497C113.821 74.7885 118.954 75.3021 121.092 74.8741C121.349 74.7885 120.579 75.1309 120.237 75.2165C119.553 75.4734 119.21 75.559 118.526 75.9014C116.644 76.6719 113.821 78.2985 114.506 80.7812C114.933 82.579 117.842 82.0654 119.039 81.7229C119.553 81.5517 120.066 81.3805 120.494 81.2093C120.665 81.1237 120.921 80.8668 120.921 80.9524C120.836 81.2093 120.151 81.9798 120.066 82.2366C119.382 83.1783 118.868 84.5481 119.125 85.8322C119.382 86.9452 120.408 87.1164 121.435 86.7739C122.718 86.4315 124.172 84.8905 124.6 83.692C124.856 83.0071 124.514 82.151 124.343 81.5517C124.172 80.61 124.172 79.5827 124.086 78.6409C123.915 75.3877 124.429 71.7065 125.797 68.7101L124.942 68.3677Z" fill="#CBC2E6"/>
<path d="M98.0812 127.953C95.3439 138.055 91.6655 156.204 89.1847 160.485C86.1907 165.536 67.7134 183.343 61.3832 186.938C60.9554 187.195 60.7844 187.709 61.041 188.137C61.2976 188.565 61.8109 188.736 62.2386 188.479C68.7399 184.798 87.645 166.563 90.639 161.341C93.2053 157.06 96.9692 138.568 99.7066 128.381C99.8776 127.953 99.5355 127.439 99.1077 127.268C98.68 127.182 98.2523 127.439 98.0812 127.953Z" fill="#CBC2E6"/>
<path d="M52.645 180.682C52.9688 180.465 53.4529 180.414 54.0171 180.447C54.5694 180.545 55.282 180.811 56.0627 181.225C57.8765 182.237 60.0074 184.13 61.2656 185.592C61.8947 186.323 62.3516 186.954 62.4641 187.386C62.6687 187.835 62.3892 188.335 61.8813 188.519C61.3733 188.702 60.9489 188.42 60.7443 187.971C60.6079 187.672 60.2993 187.273 59.9225 186.725C58.7445 185.346 56.7619 183.686 55.1203 182.774C54.6839 182.558 54.2475 182.342 53.8793 182.276C53.6952 182.244 53.615 182.16 53.4991 182.277L53.3952 182.327C53.0833 182.477 53.0236 182.81 53.056 183.159C53.1686 183.592 53.3613 184.107 53.646 184.639C54.524 186.101 55.9543 187.663 56.9635 188.393C57.1357 188.493 57.388 188.675 57.4801 188.692C57.8602 188.691 58.1125 188.874 58.3409 189.189C58.5575 189.572 58.4859 189.971 58.1501 190.254C57.3627 190.937 55.7349 191.539 53.8428 192.024C51.3508 192.677 48.3985 193.247 47.1389 193.914C46.8269 194.064 46.3991 194.331 46.0514 194.681C45.9474 194.731 45.9355 194.798 45.9117 194.931C45.8998 194.997 45.8077 194.981 45.8878 195.064C45.956 195.213 46.1401 195.246 46.3123 195.346C46.6686 195.478 46.9447 195.528 47.3129 195.594C49.2579 195.874 54.6187 195.117 56.2346 194.582C56.9386 194.365 57.6426 194.147 58.5068 194.096C58.7028 194.063 58.8988 194.029 59.0028 193.979C59.1068 193.929 59.3028 193.895 59.3949 193.912C59.4869 193.928 59.579 193.945 59.671 193.961C60.1313 194.044 60.3478 194.426 60.3922 194.709C60.3683 194.842 60.4126 195.124 60.1689 195.424C59.5656 196.14 58.2702 197.007 56.7907 197.841C54.7794 198.992 52.48 200.16 51.6568 201.043C51.529 201.226 51.3091 201.393 51.1694 201.643C51.0535 201.759 51.0296 201.892 51.0978 202.042C51.1779 202.125 51.362 202.158 51.5461 202.191C51.9143 202.257 52.2944 202.256 52.7785 202.206C55.199 201.952 58.5944 200.5 59.6103 200.133C60.1302 199.882 60.65 199.632 61.1699 199.382C61.3779 199.281 61.4699 199.298 61.5858 199.181C61.6898 199.131 62.0137 198.915 62.0137 198.915C62.3137 198.831 62.4977 198.864 62.6699 198.963C62.9341 199.079 63.0944 199.246 63.1507 199.462C63.2308 199.545 63.3553 199.911 62.9957 200.327C62.0088 201.593 60.0624 203.442 58.5762 205.374C57.9609 206.157 57.3457 206.939 57.1225 207.655C57.2264 207.605 57.4224 207.571 57.5264 207.521C60.194 206.419 65.6994 202.735 71.7806 195.306C72.0124 195.073 72.568 194.623 73.3316 194.073C75.0549 192.939 78.0377 191.138 81.0205 189.337C84.0033 187.536 86.9862 185.735 88.7333 184.468C89.3929 183.968 89.8326 183.635 90.0644 183.402C90.3201 183.035 90.9081 182.934 91.3207 183.283C91.7452 183.565 91.7418 184.114 91.4743 184.547C91.2305 184.847 90.663 185.363 89.7954 185.964C88.0483 187.23 84.9615 189.082 81.9787 190.883C78.9958 192.684 76.105 194.501 74.3818 195.635C73.7341 196.069 73.3063 196.335 73.1785 196.519C65.8787 205.446 59.313 209.215 57.0528 209.635C55.5766 209.92 55.1436 209.155 55.1827 208.406C55.3053 207.192 56.1319 205.76 57.2346 204.378C57.734 203.712 58.3254 203.062 58.9049 202.479C57.277 203.08 54.8532 203.883 53.0089 204.102C52.2367 204.169 51.5685 204.187 51.0281 204.022C50.5798 203.873 50.1434 203.657 49.915 203.341C49.366 202.693 49.3131 201.928 49.6283 201.229C49.8158 200.713 50.1754 200.297 50.5231 199.947C51.3344 199.131 53.2298 198.096 55.0332 197.046L55.357 196.829C52.8888 197.348 48.9121 197.804 47.1512 197.557C46.5989 197.458 45.9665 197.276 45.438 197.044C45.0016 196.828 44.5891 196.48 44.4646 196.114C44.1117 195.432 44.2428 194.7 44.7303 194.101C45.2177 193.501 45.9813 192.951 46.6052 192.651C47.9569 192 51.0131 191.38 53.6091 190.677C54.4052 190.476 55.2131 190.209 55.825 189.975C54.6556 189.079 53.1452 187.434 52.2791 185.905C51.7778 184.991 51.4606 184.11 51.4077 183.345C51.278 181.948 51.7092 181.132 52.645 180.682Z" fill="#CBC2E6"/>
<path d="M137.431 137.541C136.405 138.911 135.292 140.195 134.266 141.565C130.759 146.273 127.251 151.068 123.487 155.519C122.718 156.375 121.434 158.344 120.151 159.543C119.467 160.142 118.783 160.656 118.184 160.742C117.842 160.827 117.671 160.742 117.499 160.656C117.328 160.57 117.243 160.399 117.157 160.228C117.072 160.057 116.986 159.885 117.072 159.629C117.072 159.372 117.243 159.029 117.243 158.858C117.243 157.831 117.243 157.916 117.243 156.889C117.157 155.091 117.072 153.293 117.072 151.496C116.986 145.76 116.986 140.024 116.901 134.288C116.815 130.007 116.644 125.812 116.901 121.532C116.901 121.018 117.328 120.676 117.842 120.676C118.355 120.676 118.697 121.104 118.697 121.617C118.355 125.812 118.612 130.007 118.697 134.202C118.783 139.938 118.783 145.674 118.868 151.41C118.868 153.208 118.954 155.006 119.039 156.803C119.039 157.66 119.039 157.745 119.039 158.344C119.21 158.173 119.381 158.002 119.638 157.745C120.665 156.547 121.691 155.091 122.29 154.406C126.054 149.955 129.561 145.16 132.983 140.537C134.009 139.168 135.121 137.884 136.148 136.514C136.233 136.343 136.747 135.486 137.089 135.058C137.345 134.802 137.602 134.63 137.773 134.63C138.03 134.545 138.286 134.63 138.458 134.716C138.714 134.802 138.885 135.058 139.056 135.315C139.142 135.486 139.142 135.743 139.142 136C139.142 136.171 139.142 136.343 139.142 136.514C139.741 138.996 139.741 141.65 139.826 144.219C139.912 146.701 139.997 149.184 140.083 151.667C140.254 154.92 140.596 158.259 140.767 161.512C140.767 162.026 140.425 162.454 139.912 162.454C139.398 162.454 138.971 162.111 138.971 161.598C138.8 158.344 138.458 155.006 138.286 151.752C138.115 149.27 138.115 146.787 138.03 144.304C137.859 141.993 137.859 139.767 137.431 137.541Z" fill="#CBC2E6"/>
<path d="M194.288 241.786L175.916 258.146L170.221 236.889L194.288 241.786Z" fill="#00D5FF"/>
<path d="M248.245 105.434L210.767 102.015L228.537 73.4212L248.245 105.434Z" fill="#FF5784"/>
<path d="M248.163 106.31C248.455 106.337 248.815 106.253 249.023 105.919C249.23 105.585 249.257 105.293 248.993 104.975L229.355 72.8501C229.201 72.6005 228.868 72.3931 228.577 72.366C228.285 72.339 228.036 72.4923 227.828 72.8261L210.058 101.42C209.919 101.642 209.823 102.045 209.976 102.295C210.129 102.544 210.351 102.683 210.754 102.779L248.163 106.31ZM212.194 101.206L246.467 104.328L228.512 74.949L212.194 101.206Z" fill="white"/>
<path d="M70.7758 12.8061C71.5207 12.2408 72.522 12.1381 73.3463 12.6143C74.1706 13.0904 74.5824 14.0095 74.4655 14.9377L72.0884 30.1234L84.9247 38.5346C85.7263 39.0501 86.1153 40.0085 85.8973 40.9306C85.6793 41.8527 84.9676 42.5419 84.0447 42.69L68.8687 45.1367L64.8456 60.0004C64.5883 60.8998 63.8373 61.5664 62.8979 61.6525C61.9585 61.7386 61.0723 61.2791 60.6152 60.4386L53.601 46.7445L38.2416 47.5133C37.3249 47.5601 36.4221 47.0385 36.0497 46.1421C35.6545 45.285 35.8559 44.301 36.5057 43.6283L47.3586 32.7103L41.8882 18.336C41.555 17.4623 41.8184 16.4616 42.4847 15.8509C43.1738 15.2009 44.1751 15.0982 45.0448 15.4958L58.7428 22.4135L70.7758 12.8061Z" fill="#FFC700"/>
<path d="M220.424 302.987C220.495 302.573 220.795 302.219 221.22 302.105C221.645 301.991 222.082 302.147 222.351 302.471L226.947 308.174L234.177 309.308C234.591 309.38 234.945 309.68 235.059 310.106C235.173 310.532 235.017 310.969 234.694 311.238L229 315.836L227.871 323.073C227.8 323.487 227.5 323.842 227.074 323.955C226.649 324.069 226.212 323.913 225.943 323.589L221.348 317.886L214.118 316.752C213.704 316.68 213.35 316.38 213.236 315.954C213.122 315.529 213.278 315.091 213.601 314.822L219.295 310.224L220.424 302.987Z" fill="#FFC700"/>
<path d="M44.0618 293.885C49.5878 296.698 55.964 298.715 62.9353 299.816C109.269 307.092 178.472 290.217 210.522 266.922C227.101 254.877 236.282 239.041 233.817 224.122C232.202 214.217 225.315 204.802 212.223 197.22C211.798 196.976 211.628 196.425 211.883 195.997C212.138 195.569 212.648 195.447 213.073 195.692C226.76 203.64 233.732 213.545 235.517 223.878C238.068 239.347 228.801 255.855 211.543 268.389C179.152 291.929 109.354 308.926 62.5952 301.589C55.2838 300.427 48.4826 298.287 42.7015 295.23C32.7547 304.585 17.962 311.31 1.97902 313.94C1.46892 314.001 1.04384 313.695 0.95882 313.206C0.873804 312.717 1.21389 312.289 1.72398 312.166C17.1118 309.598 31.3944 303.24 41.0862 294.313C33.0948 289.727 27.2287 283.308 25.0183 275.543C23.573 270.346 24.0831 261.786 29.4391 257.261C31.7345 255.305 35.0501 254.082 39.3859 254.204C44.997 254.388 48.7376 256.222 51.2031 258.851C53.4985 261.297 54.6037 264.537 54.9438 267.9C55.4539 272.852 54.1786 278.111 52.5634 281.718C50.693 286.12 47.7175 290.155 44.0618 293.885ZM42.4465 293.029C46.1022 289.361 49.0777 285.325 51.0331 280.984C52.5634 277.621 53.6685 272.669 53.2435 268.083C52.9884 265.087 51.9682 262.214 49.9279 260.074C47.7174 257.689 44.4018 256.161 39.3859 255.977C26.3785 255.549 24.8482 268.389 26.7186 275.053C28.929 282.513 34.625 288.627 42.4465 293.029Z" fill="#CBC2E6"/>
</svg>
