<svg width="245" height="394" viewBox="0 0 245 394" fill="none" xmlns="http://www.w3.org/2000/svg">
<path d="M207.195 112.904C207.359 112.115 207.844 111.406 208.607 110.974C209.371 110.542 210.207 110.405 211.103 110.629C216.03 111.858 225.373 114.188 230.364 115.433C231.196 115.641 231.959 116.177 232.476 116.928C232.928 117.663 233.161 118.482 232.983 119.337C231.253 127.619 226.491 150.428 224.761 158.711C224.597 159.5 224.112 160.209 223.349 160.641C222.649 161.089 221.749 161.21 220.853 160.986C215.926 159.757 206.583 157.427 201.592 156.182C200.76 155.974 199.997 155.438 199.48 154.687C199.028 153.952 198.795 153.133 198.973 152.278C200.716 143.93 205.479 121.121 207.195 112.904Z" fill="#CBC2E6"/>
<path d="M211.477 116.33C211.583 115.823 211.888 115.403 212.335 115.139C212.783 114.875 213.321 114.804 213.86 114.94C215.165 115.267 216.886 115.699 218.191 116.027C218.709 116.157 219.187 116.483 219.486 116.933C219.785 117.384 219.891 117.92 219.788 118.416C219.525 119.684 219.183 121.332 218.92 122.6C218.814 123.107 218.509 123.528 218.062 123.791C217.614 124.055 217.076 124.126 216.537 123.991C215.232 123.663 213.511 123.231 212.206 122.904C211.688 122.774 211.21 122.448 210.911 121.997C210.612 121.546 210.506 121.01 210.609 120.514C210.872 119.246 211.214 117.598 211.477 116.33Z" fill="white"/>
<path d="M221.047 93.1082C221.152 92.6011 221.458 92.1805 221.905 91.9169C222.352 91.6532 222.89 91.5821 223.429 91.7173C224.735 92.045 226.455 92.4767 227.761 92.8044C228.279 92.9344 228.757 93.2604 229.055 93.7113C229.354 94.1622 229.461 94.6983 229.358 95.1939C229.095 96.4618 228.753 98.11 228.489 99.3778C228.384 99.8849 228.079 100.305 227.631 100.569C227.184 100.833 226.646 100.904 226.107 100.769C224.801 100.441 223.081 100.009 221.775 99.6816C221.257 99.5516 220.78 99.2256 220.481 98.7747C220.182 98.3238 220.075 97.7877 220.178 97.2921C220.442 96.0242 220.786 94.3645 221.047 93.1082Z" fill="#00D5FF"/>
<path d="M209.04 129.056C208.843 130.008 208.576 131.29 208.379 132.242C208.26 132.813 208.385 133.419 208.719 133.921C209.052 134.431 209.586 134.8 210.181 134.949C211.163 135.196 212.502 135.532 213.484 135.778C214.08 135.928 214.706 135.85 215.207 135.549C215.708 135.248 216.06 134.762 216.176 134.199C216.374 133.247 216.64 131.965 216.838 131.013C216.957 130.442 216.832 129.836 216.498 129.334C216.165 128.824 215.631 128.455 215.036 128.306C214.054 128.059 212.715 127.723 211.732 127.477C211.137 127.327 210.51 127.405 210.01 127.706C209.51 127.999 209.159 128.485 209.04 129.056ZM210.886 129.519C210.906 129.42 210.971 129.332 211.061 129.276C211.151 129.22 211.264 129.205 211.368 129.231C212.35 129.477 213.69 129.814 214.672 130.06C214.776 130.086 214.871 130.154 214.93 130.247C214.989 130.34 215.013 130.451 214.993 130.55C214.795 131.501 214.529 132.784 214.331 133.736C214.311 133.835 214.245 133.923 214.155 133.979C214.066 134.035 213.953 134.05 213.849 134.024C212.867 133.777 211.527 133.441 210.545 133.195C210.441 133.169 210.345 133.101 210.286 133.008C210.227 132.915 210.203 132.804 210.224 132.705L210.886 129.519Z" fill="white"/>
<path d="M226.581 108.577C226.749 107.769 227.222 107.084 227.968 106.673C228.675 106.253 229.563 106.155 230.388 106.362C233.137 107.052 237.064 108.038 239.814 108.728C240.638 108.935 241.395 109.469 241.871 110.163C242.342 110.879 242.537 111.732 242.369 112.54C241.82 115.183 241.032 118.983 240.487 121.604C240.32 122.412 239.847 123.098 239.101 123.508C238.394 123.928 237.505 124.026 236.681 123.819C233.932 123.129 230.004 122.143 227.255 121.453C226.43 121.246 225.674 120.712 225.198 120.018C224.722 119.324 224.532 118.449 224.7 117.641C225.244 115.02 226.033 111.22 226.581 108.577Z" fill="#C2DE0B"/>
<path d="M225.64 108.341C225.091 110.983 224.302 114.783 223.758 117.404C223.545 118.43 223.769 119.543 224.404 120.461C225.04 121.379 225.975 122.05 227.075 122.326C229.824 123.016 233.751 124.002 236.499 124.692C237.599 124.968 238.706 124.809 239.641 124.286C240.576 123.762 241.217 122.866 241.43 121.84C241.978 119.197 242.767 115.398 243.311 112.777C243.524 111.75 243.301 110.637 242.665 109.72C242.068 108.812 241.094 108.131 239.995 107.855C237.246 107.165 233.319 106.179 230.57 105.489C229.47 105.213 228.363 105.371 227.428 105.895C226.489 106.44 225.853 107.314 225.64 108.341ZM227.485 108.804C227.603 108.236 227.952 107.75 228.466 107.465C228.979 107.18 229.579 107.078 230.168 107.226C232.917 107.916 236.844 108.902 239.593 109.592C240.182 109.74 240.725 110.106 241.032 110.619C241.382 111.121 241.505 111.726 241.387 112.294L239.506 121.357C239.388 121.925 239.039 122.411 238.525 122.696C238.012 122.981 237.412 123.083 236.823 122.935C234.074 122.245 230.147 121.259 227.398 120.569C226.809 120.421 226.265 120.055 225.959 119.542C225.608 119.04 225.486 118.435 225.604 117.867L227.485 108.804Z" fill="#C2DE0B"/>
<path d="M83.1186 239.652L93.2961 271.522C94.0643 273.95 94.7181 276.363 95.0165 278.885C95.315 281.407 95.5119 283.96 95.3406 286.576L91.8583 341.727L90.7152 351.921L112.018 352.578L113.161 342.384L121.8 287.385C122.451 283.289 122.618 279.239 122.507 275.173C122.395 271.107 121.8 267.087 120.94 263.098L113.91 230.257L110.076 215.909L79.2721 225.256L83.1186 239.652Z" fill="#CBC2E6"/>
<path d="M119.288 231.464L153.712 281.446C154.875 283.176 155.841 284.976 156.135 286.903C156.46 288.896 156.52 290.984 155.875 292.866L142.318 333.226L138.756 342.487L158.435 350.863L161.997 341.603L178.874 302.656C181.132 297.47 181.805 291.743 181.341 286.041C180.894 280.295 178.903 274.606 175.79 269.32L145.269 217.204L136.848 203.971L110.8 218.255L119.288 231.464Z" fill="#CBC2E6"/>
<path d="M109.142 371.668L118.644 374.937L123.367 376.076L120.863 385.445L116.14 384.307L100.602 382.052L95.7406 380.866L95.2734 366.853L95.4655 359.712L109.935 359.818L109.743 366.96L109.142 371.668Z" fill="#C2DE0B"/>
<path d="M122.936 388.682L97.0372 383.807C96.179 383.663 95.3593 384.192 95.1648 385.039C94.9703 385.885 95.5013 386.677 96.3595 386.821L122.258 391.695C123.116 391.839 123.936 391.31 124.13 390.464C124.328 389.67 123.794 388.826 122.936 388.682Z" fill="#CBC2E6"/>
<path d="M109.722 363.566C108.581 363.749 107.42 363.591 106.275 363.726C105.43 363.839 104.774 364.624 104.871 365.451C104.968 366.278 105.755 366.906 106.6 366.793C107.744 366.658 108.903 366.767 110.097 366.628C110.942 366.516 111.549 365.734 111.452 364.907C111.352 364.032 110.567 363.453 109.722 363.566Z" fill="#CBC2E6"/>
<path d="M109.135 369.013C107.951 369.348 106.819 369.729 105.635 370.064C104.795 370.275 104.29 371.1 104.487 371.921C104.685 372.743 105.514 373.221 106.354 373.011C107.541 372.724 108.72 372.291 109.954 371.952C110.794 371.742 111.296 370.867 111.049 370.05C110.802 369.232 109.972 368.753 109.135 369.013Z" fill="#CBC2E6"/>
<path d="M145.841 368.443L154.175 374.734L158.45 377.405L153.474 385.325L149.199 382.654L134.729 375.261L130.333 372.498L133.688 359.221L135.814 352.6L149.83 357.619L147.703 364.239L145.841 368.443Z" fill="#C2DE0B"/>
<path d="M153.93 389.161L130.392 376.067C129.607 375.649 128.677 375.867 128.261 376.585C127.845 377.303 128.14 378.212 128.925 378.629L152.463 391.724C153.248 392.142 154.178 391.924 154.594 391.206C154.998 390.536 154.715 389.579 153.93 389.161Z" fill="#CBC2E6"/>
<path d="M148.826 360.971C147.678 360.759 146.603 360.224 145.465 359.966C144.621 359.788 143.777 360.297 143.647 361.097C143.516 361.897 144.104 362.743 144.948 362.921C146.086 363.179 147.171 363.668 148.358 363.939C149.202 364.118 149.998 363.596 150.128 362.796C150.268 361.949 149.719 361.163 148.826 360.971Z" fill="#CBC2E6"/>
<path d="M146.592 365.978C145.36 365.892 144.166 365.865 142.934 365.779C142.067 365.692 141.357 366.29 141.325 367.12C141.292 367.95 141.962 368.674 142.829 368.76C144.051 368.893 145.304 368.887 146.586 368.986C147.453 369.073 148.173 368.429 148.156 367.585C148.189 366.755 147.47 366.018 146.592 365.978Z" fill="#CBC2E6"/>
<path d="M149.621 136.738C138.964 117.575 113.993 111.653 93.792 123.498C73.5907 135.342 65.8667 160.434 76.5232 179.596L149.621 136.738Z" fill="#C2DE0B"/>
<path d="M197.035 108.847L186.93 105.325C186.42 105.158 185.928 105.425 185.702 105.896C185.505 106.411 185.748 106.885 186.211 107.083L196.316 110.606C196.825 110.773 197.317 110.505 197.543 110.034C197.74 109.519 197.515 108.97 197.035 108.847Z" fill="#CBC2E6"/>
<path d="M203.3 100.513L188.548 86.0398C188.189 85.7005 187.588 85.7157 187.223 86.0884C186.857 86.4612 186.839 87.0525 187.199 87.3918L201.951 101.865C202.31 102.204 202.911 102.189 203.276 101.816C203.671 101.488 203.689 100.897 203.3 100.513Z" fill="#CBC2E6"/>
<path d="M211.732 93.7636L208.435 82.3679C208.312 81.8726 207.739 81.6152 207.258 81.8087C206.749 81.9575 206.456 82.5389 206.625 83.0029L209.922 94.3986C210.045 94.8939 210.619 95.1512 211.099 94.9578C211.579 94.7644 211.855 94.259 211.732 93.7636Z" fill="#CBC2E6"/>
<path d="M140.06 97.305C140.682 105.469 135.271 113.03 127.311 110.134C125.973 109.656 124.743 108.65 123.711 107.674C121.233 105.309 120.242 102.394 119.876 99.2376C119.459 95.9437 119.731 92.3795 119.784 88.8337C119.782 88.3145 119.368 87.9007 118.862 87.8489C118.355 87.797 117.935 88.1865 117.937 88.7057C117.909 92.3202 117.662 95.9531 118.059 99.2958C118.467 102.874 119.673 106.172 122.495 108.862C123.711 110.035 125.191 111.209 126.797 111.806C135.985 115.189 142.629 106.792 141.902 97.3155C141.835 96.8253 141.421 96.4116 140.895 96.4086C140.413 96.4254 139.993 96.8148 140.06 97.305Z" fill="#CBC2E6"/>
<path d="M120.142 88.0171C118.467 87.1943 116.58 86.0319 115.899 84.2572C114.793 81.8036 116.034 78.5054 119.046 78.6096C120.427 78.6473 121.574 79.482 122.804 80.1084C123.323 80.3376 123.833 80.154 124.075 79.7699C124.271 79.2836 124.04 78.7724 123.624 78.5064C122.171 77.7818 120.728 76.816 119.097 76.7495C114.807 76.5709 112.756 81.2299 114.294 84.7754C115.234 86.9918 117.407 88.5263 119.601 89.5784C120.119 89.8077 120.629 89.624 120.797 89.2072C120.863 88.827 120.661 88.2464 120.142 88.0171Z" fill="#CBC2E6"/>
<path d="M121.224 73.8581C119.793 77.4203 128.416 91.4096 141.628 96.5382C153.602 101.118 162.552 84.1824 150.298 74.9594C135.861 64.1232 121.224 73.8581 121.224 73.8581Z" fill="#CBC2E6"/>
<path d="M124.515 79.9791C123.363 79.3872 122.025 79.0399 120.761 78.7251C117.486 78.0096 113.982 79.8054 115.227 83.6224C116.298 86.791 123.71 91.0522 119.094 94.3151C115.921 96.5842 111.293 94.0453 108.446 92.0498C101.664 87.0877 98.7228 78.846 100.349 71.5652C101.975 64.2844 110.989 60.0293 118.582 61.6772C125.134 63.1082 132.099 68.4781 131.138 75.4005L124.515 79.9791Z" fill="#CBC2E6"/>
<path d="M174.548 152.583C165.463 157.934 154.845 163.591 139.234 170.428C132.545 173.409 125.027 173.378 118.845 170.419C110.155 166.316 98.1193 159.868 91.4556 153.142C89.2989 150.953 87.6755 148.753 86.9932 146.637C86.3445 144.656 86.5318 142.647 87.7482 140.769C92.5179 133.792 99.2296 133.048 106.116 135.148C113.322 137.299 120.593 142.47 126.095 147.004C132.581 152.407 141.715 153.991 150.302 151.247C160.443 147.974 172.298 144.196 172.298 144.196C172.797 144.049 173.124 143.519 172.935 143.068C172.817 142.596 172.288 142.317 171.805 142.532C171.805 142.532 159.95 146.309 149.809 149.582C141.864 152.137 133.37 150.655 127.375 145.687C121.751 140.971 114.16 135.749 106.778 133.505C99.0767 131.211 91.5629 132.118 86.1597 139.933C83.0933 144.527 85.1392 149.644 89.9615 154.523C96.8185 161.409 109.031 167.95 117.897 172.145C124.592 175.315 132.715 175.314 139.904 172.186C155.657 165.307 166.33 159.561 175.503 154.256C175.969 153.974 176.137 153.418 175.876 152.988C175.581 152.423 175.014 152.301 174.548 152.583Z" fill="#CBC2E6"/>
<path d="M172.107 144.612C172.131 139.009 174.218 133.417 178.775 129.613C179.763 128.833 181.514 127.861 183.118 127.592C183.921 127.458 184.642 127.467 185.18 127.863C185.538 128.126 185.716 128.517 185.791 129.152C185.962 130.321 185.335 131.105 184.549 131.657C183.461 132.422 182.054 132.981 180.988 133.645C177.928 135.451 175.922 138.408 175.775 141.862C175.771 142.381 176.148 142.803 176.669 142.781C177.19 142.758 177.634 142.361 177.638 141.842C177.76 139.006 179.442 136.621 181.857 135.182C182.924 134.518 184.391 133.917 185.539 133.11C186.929 132.133 187.881 130.776 187.577 128.756C187.445 127.646 186.93 126.89 186.353 126.437C185.736 125.925 184.956 125.699 184.075 125.717C181.911 125.691 179.036 127.11 177.604 128.288C172.603 132.49 170.251 138.612 170.263 144.791C170.258 145.309 170.696 145.689 171.217 145.667C171.699 145.586 172.103 145.13 172.107 144.612Z" fill="#CBC2E6"/>
<path d="M177.732 142.512C181.078 139.384 185.713 136.302 190.315 137.385C191.401 137.659 192.586 137.948 193.324 138.897C194.281 140.038 194.447 141.993 192.811 142.624C192.246 142.848 191.502 142.68 190.819 142.469C189.896 142.169 188.972 141.868 188.188 141.641C186.339 141.301 184.361 141.826 182.566 142.224C182.082 142.305 181.716 142.821 181.773 143.299C181.829 143.777 182.33 144.116 182.814 144.035C184.448 143.665 186.102 143.193 187.751 143.502C188.656 143.644 189.739 144.178 190.784 144.393C191.729 144.593 192.554 144.617 193.342 144.323C196.331 143.173 196.418 139.745 194.662 137.699C193.665 136.5 192.259 136.02 190.732 135.625C185.547 134.346 180.246 137.638 176.393 141.208C176.008 141.565 175.983 142.187 176.282 142.494C176.783 142.833 177.347 142.869 177.732 142.512Z" fill="#CBC2E6"/>
<path d="M182.561 144.069C185.497 144.527 187.623 144.858 189.244 147.627C189.463 148.081 189.701 148.695 189.676 149.32C189.693 149.742 189.609 150.148 189.141 150.39C188.795 150.545 188.512 150.397 188.23 150.248C187.603 149.993 187.059 149.593 186.574 149.413C184.795 148.664 182.91 148.685 180.963 148.748C180.436 148.771 180.026 149.232 180.022 149.755C180.018 150.279 180.461 150.662 180.989 150.64C182.632 150.529 184.254 150.519 185.789 151.178C186.376 151.374 187.101 151.907 187.829 152.177C188.557 152.448 189.348 152.414 190 152.044C190.835 151.545 191.307 150.78 191.436 149.908C191.606 148.834 191.292 147.579 190.832 146.774C188.911 143.434 186.462 142.895 182.919 142.343C182.413 142.264 181.923 142.607 181.818 143.115C181.734 143.521 182.054 143.99 182.561 144.069Z" fill="#CBC2E6"/>
<path d="M144.817 214.127L106.075 237.964L78.0452 224.164C73.4925 208.751 77.8667 200.237 86.4364 191.814L133.48 190.47L144.817 214.127Z" fill="#CBC2E6"/>
<path d="M119.028 91.2917C121.175 97.1244 117.659 103.638 112.627 106.476C109.92 107.997 105.518 108.768 102.961 105.945C100.678 103.431 103.414 99.1056 104.924 97.3346C105.318 96.852 105.924 96.0883 106.592 95.9153C106.826 95.8311 106.21 96.1213 105.977 96.2056C105.743 96.2898 105.478 96.4537 105.244 96.5379C104.629 96.8282 104.162 96.9966 103.493 97.1697C101.573 97.7263 98.6367 97.8323 96.9447 96.3312C95.1153 94.6753 96.0005 92.7211 97.6045 91.4611C98.1675 91.0537 98.8151 90.6838 99.4627 90.3138C99.8129 90.1875 99.9297 90.1454 100.365 90.0566C100.481 90.0145 100.937 90.1226 100.799 89.9678C98.281 88.288 92.5793 87.8251 93.5026 83.5412C93.9963 81.3196 96.7335 80.4681 98.8004 80.5397C100.867 80.6113 102.932 81.4329 104.944 82.1373C107.041 82.8793 109.223 83.6588 111.043 84.8412L119.028 91.2917Z" fill="#CBC2E6"/>
<path d="M142.21 95.2541C144.853 95.7545 147.567 97.3327 149.602 99.0861C150.646 100.022 151.818 101.395 151.555 102.8C150.974 106.252 145.605 104.454 143.613 103.099C143.387 102.904 144.033 103.569 144.345 103.802C144.937 104.349 145.249 104.582 145.808 105.209C147.412 106.772 149.637 109.561 148.002 111.596C146.887 113.101 144.151 111.323 143.075 110.468C142.623 110.078 142.171 109.689 141.805 109.337C141.665 109.18 141.504 108.824 141.471 108.905C141.46 109.185 141.856 110.215 141.845 110.495C142.176 111.687 142.172 113.207 141.424 114.303C140.742 115.238 139.642 114.943 138.738 114.164C137.575 113.27 136.696 111.171 136.721 109.851C136.723 109.091 137.394 108.437 137.795 107.948C138.326 107.136 138.717 106.168 139.162 105.318C140.572 102.328 141.457 98.6296 141.218 95.1965L142.21 95.2541Z" fill="#CBC2E6"/>
<path d="M177.506 159.967C185.323 160.259 192.925 160.155 196.345 159.441C196.859 159.35 197.158 158.863 197.08 158.349C197.002 157.835 196.523 157.548 196.008 157.639C192.588 158.353 185.181 158.407 177.559 158.065C177.056 158.03 176.575 158.441 176.527 158.946C176.662 159.527 177.06 160 177.506 159.967Z" fill="#CBC2E6"/>
<path d="M215.154 170.143C215.038 170.172 214.517 170.243 214.051 170.361C212.248 170.754 208.921 171.77 204.612 172.853C195.878 175.05 183.262 177.805 171.333 178.122C163.208 178.317 155.36 177.488 149.158 174.635C148.709 174.39 148.504 173.845 148.698 173.379C148.892 172.913 149.418 172.721 149.929 172.891C155.903 175.682 163.468 176.403 171.304 176.221C183.178 175.858 195.678 173.133 204.235 171.04C209.242 169.781 212.858 168.753 214.427 168.418C215.009 168.271 215.353 168.304 215.525 168.32C221.055 169.494 225.824 167.162 228.828 163.126C233.485 156.947 234.179 146.755 227.416 138.558C227.088 138.163 227.116 137.56 227.532 137.276C227.892 136.947 228.463 137.042 228.791 137.437C236.154 146.378 235.415 157.535 230.271 164.314C226.784 168.828 221.311 171.457 215.154 170.143Z" fill="#CBC2E6"/>
<path d="M104.502 182.002C104.563 181.544 104.563 181.086 104.623 180.653C104.684 178.948 104.683 177.242 104.804 175.537C104.865 174.341 104.986 173.17 104.804 171.974C104.744 171.464 105.046 170.981 105.53 170.904C106.014 170.828 106.497 171.159 106.618 171.668C106.86 172.992 106.739 174.315 106.618 175.639C106.497 177.344 106.558 179.05 106.437 180.755C106.437 181.315 106.376 181.849 106.316 182.409C106.316 182.613 106.316 182.664 106.316 182.791C106.376 182.919 106.376 183.071 106.437 183.148C106.437 183.377 106.376 183.58 106.256 183.758C106.135 183.937 105.893 184.217 105.349 184.166C104.079 184.038 102.446 182.995 101.66 182.613C98.9999 181.289 96.5209 179.864 94.0419 178.464C93.3163 178.057 92.5907 177.701 91.8652 177.293C91.7442 177.751 91.7443 178.235 91.6838 178.693C91.6233 179.457 91.5629 180.195 91.5024 180.959C91.3815 181.926 91.1397 182.893 91.0187 183.86C90.9583 184.369 90.535 184.726 89.9908 184.675C89.5071 184.624 89.1443 184.166 89.1443 183.657C89.2652 182.664 89.5071 181.671 89.628 180.704C89.749 179.991 89.749 179.253 89.8095 178.541C89.8699 177.675 89.9303 176.81 90.3536 175.97C90.414 175.741 90.5955 175.41 90.7769 175.282C90.9582 175.181 91.1396 175.079 91.5024 175.104C91.6233 175.104 91.8652 175.181 92.107 175.308C92.2884 175.41 92.6512 175.639 92.7117 175.69C93.4372 176.097 94.1628 176.479 94.8883 176.861C97.3673 178.235 99.7859 179.66 102.446 180.984C102.87 181.137 103.716 181.671 104.502 182.002ZM90.2931 175.919C90.2327 175.995 90.2327 176.122 90.2327 176.122C90.2327 176.122 90.2931 176.046 90.2931 175.919Z" fill="#CBC2E6"/>
<path d="M164.91 7.57703L161.819 41.2156L172.086 41.1748L181.501 58.9616L183.363 26.6461L171.008 30.1292L164.91 7.57703Z" fill="#FFC700"/>
<path d="M220.627 138.21C220.18 137.493 219.734 136.597 219.466 135.79C219.109 134.626 219.109 133.371 219.645 132.475C220.091 131.758 220.537 131.399 221.162 131.22C221.698 131.041 222.234 131.131 222.858 131.31C224.197 131.758 225.536 133.102 226.251 133.909C226.608 134.267 227.768 135.701 228.125 136.059C228.482 136.418 228.572 136.955 228.304 137.404C227.947 137.762 227.411 137.852 226.965 137.583C226.518 137.224 225.179 135.701 224.822 135.253C224.376 134.715 223.573 133.909 222.68 133.371C222.323 133.192 221.966 133.013 221.698 133.102C221.519 133.192 221.43 133.281 221.252 133.461C220.984 133.998 221.073 134.626 221.252 135.342C221.609 136.687 222.501 137.941 223.126 138.748C223.483 139.285 223.84 139.733 224.197 140.181C224.287 140.361 224.555 140.63 224.733 140.719C224.912 140.898 224.912 141.167 224.912 141.257C224.912 141.526 224.822 141.705 224.733 141.884C224.644 142.063 224.376 142.243 224.019 142.332C223.84 142.332 223.573 142.332 223.216 142.153C222.858 141.974 222.323 141.346 222.144 141.257C221.43 140.719 220.716 140.092 219.823 140.002C219.109 139.913 218.574 139.913 218.395 140.271C218.127 140.63 218.217 141.167 218.484 141.795C219.02 143.049 219.823 143.945 220.805 144.841C221.877 145.917 222.948 146.902 223.751 148.157C224.019 148.515 223.93 148.784 223.84 148.964C223.751 149.322 223.483 149.591 222.948 149.591C222.858 149.591 222.769 149.591 222.68 149.501C222.591 149.501 222.323 149.322 222.323 149.322C222.144 149.232 221.966 149.143 221.877 149.143C221.43 148.874 220.895 148.695 220.448 148.515C219.823 148.247 218.752 147.978 217.859 147.978C217.235 147.978 216.52 148.067 216.342 148.784C216.253 148.964 216.342 149.053 216.342 149.232C216.431 149.501 216.61 149.77 216.699 150.039C217.502 151.383 219.109 152.369 220.359 153.086C220.895 153.444 221.519 153.713 222.144 153.892C222.68 153.982 222.948 154.519 222.769 155.057C222.68 155.595 222.144 155.864 221.609 155.684C220.805 155.505 220.091 155.147 219.377 154.788C217.77 153.892 215.896 152.638 215.003 151.025C214.557 150.218 214.11 149.143 214.467 148.247C214.914 147.082 215.806 146.544 216.967 146.365C217.859 146.186 218.841 146.365 219.734 146.544L219.466 146.275C218.395 145.2 217.324 144.035 216.788 142.601C216.253 141.167 216.342 140.002 216.967 139.285C217.502 138.568 218.663 138.12 220.18 138.389C220.27 138.12 220.448 138.21 220.627 138.21Z" fill="white"/>
<path d="M233.119 323.126L212.926 340.565L207.663 318.945L233.119 323.126Z" fill="#FFC700"/>
<path d="M46.0045 241.892L24.8552 228.522L45.3455 216.467L46.0045 241.892Z" fill="#CBC2E6"/>
<path d="M35.5182 125.125C35.8703 124.884 36.3564 124.859 36.7672 125.1C37.178 125.341 37.404 125.783 37.3804 126.216L36.8518 133.754L41.6364 140.034C41.9057 140.398 41.9643 140.88 41.7476 141.269C41.5308 141.658 41.0965 141.851 40.6537 141.798L32.9502 140.761L26.8895 145.057C26.5373 145.298 26.0513 145.323 25.6405 145.082C25.2297 144.842 25.0037 144.399 25.0272 143.966L25.5559 136.428L20.7713 130.148C20.502 129.784 20.4434 129.302 20.6601 128.913C20.8769 128.524 21.3112 128.331 21.7539 128.384L29.4575 129.421L35.5182 125.125Z" fill="#9C63FF"/>
<path d="M29.1607 128.455L34.9258 124.364C35.5739 123.918 36.4624 123.888 37.1745 124.305C37.914 124.738 38.3401 125.539 38.2671 126.322L37.7605 133.494L42.3163 139.468C42.8147 140.138 42.906 141.018 42.5303 141.693C42.1401 142.393 41.3551 142.76 40.5533 142.634L33.2229 141.643L27.4707 145.776C26.8226 146.222 25.9341 146.252 25.222 145.835C24.4826 145.402 24.0565 144.602 24.1294 143.818L24.6361 136.646L20.0802 130.672C19.5819 130.002 19.4905 129.122 19.8662 128.447C20.2564 127.747 21.0414 127.381 21.8433 127.506L29.1607 128.455ZM36.0853 125.87C36.1561 125.808 36.2527 125.83 36.3075 125.862C36.3896 125.91 36.4155 125.994 36.414 126.062L35.8853 133.6C35.8663 133.83 35.931 134.04 36.0794 134.23L40.8642 140.51C40.9319 140.584 40.9159 140.678 40.887 140.73C40.8437 140.808 40.76 140.828 40.6908 140.821L33.0142 139.8C32.7792 139.765 32.5555 139.841 32.3866 139.948L26.3257 144.245C26.2549 144.306 26.1583 144.284 26.1035 144.252C26.0214 144.204 25.9955 144.12 25.997 144.052L26.5257 136.514C26.5447 136.284 26.48 136.074 26.3316 135.884L21.5324 129.63C21.4646 129.556 21.4806 129.462 21.5095 129.41C21.5529 129.332 21.6365 129.313 21.7058 129.319L29.4097 130.356C29.6448 130.391 29.8684 130.315 30.0373 130.208L36.0853 125.87Z" fill="#9C63FF"/>
<path d="M69.5857 267.073C46.7332 264.564 19.7743 280.067 6.65197 298.079C0.581768 306.502 -0.578713 314.657 1.74225 321.557C5.22369 331.863 16.2929 339.48 29.8616 340.913C39.8596 341.989 49.4112 339.569 59.1414 337.508C87.5285 331.325 115.469 316.36 143.856 304.979C172.065 293.688 200.631 286.071 230.446 294.315C230.893 294.494 231.428 294.136 231.607 293.688C231.785 293.24 231.428 292.702 230.982 292.523C200.72 284.099 171.708 291.806 143.142 303.187C114.844 314.478 86.9929 329.443 58.6951 335.626C49.1434 337.687 39.7703 340.107 29.9509 339.032C17.2748 337.598 6.74124 330.608 3.5276 320.84C1.38518 314.388 2.45639 306.861 8.16953 299.064C20.9348 281.5 47.1795 266.446 69.4072 268.865C69.9428 268.955 70.3891 268.596 70.3891 268.059C70.3891 267.521 70.0321 267.073 69.5857 267.073Z" fill="#CBC2E6"/>
</svg>
