<svg width="38" height="36" viewBox="0 0 38 36" fill="none" xmlns="http://www.w3.org/2000/svg">
<path d="M34.2317 16.662L20.4076 3.56848C20.0242 3.20694 19.5053 3.00397 18.9644 3.00397C18.4235 3.00397 17.9046 3.20694 17.5212 3.56848L14.6569 6.28498L18.297 9.73498C18.7265 9.5975 19.188 9.57679 19.6293 9.6752C20.0706 9.7736 20.4739 9.98719 20.7936 10.2917C21.1132 10.5963 21.3364 10.9796 21.4377 11.3982C21.5391 11.8168 21.5146 12.2539 21.3671 12.66L24.8726 15.9855C25.3916 15.813 25.9571 15.8129 26.4762 15.9853C26.9952 16.1577 27.4369 16.4923 27.7285 16.9341C28.0202 17.3758 28.1445 17.8985 28.081 18.4161C28.0174 18.9337 27.7699 19.4154 27.379 19.782C26.4306 20.682 24.8995 20.682 23.9495 19.782C23.6121 19.4619 23.3815 19.0549 23.2867 18.6116C23.1918 18.1682 23.2367 17.7083 23.4159 17.289L20.1321 14.1945V22.35C20.3633 22.4565 20.5849 22.6035 20.7765 22.785C21.2292 23.2169 21.4833 23.8008 21.4833 24.4095C21.4833 25.0181 21.2292 25.6021 20.7765 26.034C20.5506 26.2483 20.2824 26.4184 19.987 26.5344C19.6917 26.6504 19.3751 26.7101 19.0554 26.7101C18.7357 26.7101 18.4192 26.6504 18.1238 26.5344C17.8285 26.4184 17.5602 26.2483 17.3344 26.034C17.109 25.8211 16.9301 25.5681 16.8081 25.2896C16.6861 25.0111 16.6233 24.7125 16.6233 24.411C16.6233 24.1094 16.6861 23.8109 16.8081 23.5324C16.9301 23.2539 17.109 23.0009 17.3344 22.788C17.575 22.563 17.8442 22.392 18.1324 22.2795V14.0445C17.8363 13.9297 17.5672 13.7604 17.3406 13.5465C17.1141 13.3325 16.9345 13.0782 16.8123 12.7981C16.6901 12.518 16.6277 12.2178 16.6287 11.9147C16.6297 11.6117 16.6941 11.3118 16.8182 11.0325L13.2399 7.62598L3.76044 16.599C2.96877 17.355 2.96877 18.579 3.76044 19.335L17.5845 32.4285C17.7737 32.6081 17.9984 32.7507 18.2457 32.8479C18.4931 32.9452 18.7583 32.9952 19.0261 32.9952C19.294 32.9952 19.5592 32.9452 19.8066 32.8479C20.0539 32.7507 20.2786 32.6081 20.4678 32.4285L34.2269 19.395C34.4175 19.2163 34.5688 19.0036 34.6723 18.7692C34.7757 18.5349 34.8292 18.2834 34.8296 18.0294C34.8301 17.7754 34.7775 17.5238 34.6749 17.2891C34.5722 17.0544 34.4216 16.8413 34.2317 16.662Z" fill="white"/>
</svg>
