<svg width="37" height="40" viewBox="0 0 37 40" fill="none" xmlns="http://www.w3.org/2000/svg">
<g clip-path="url(#clip0_0_28)">
<path d="M3.43332 8.09503C2.98121 8.09525 2.53359 8.19195 2.11613 8.3796C1.69867 8.56725 1.31958 8.84215 1.0006 9.18853C0.681632 9.53491 0.429052 9.94597 0.25735 10.3981C0.0856473 10.8503 -0.00179831 11.3346 2.80279e-05 11.8234V24.2517C-0.000174588 24.7414 0.0888906 25.2263 0.262133 25.6787C0.435375 26.1312 0.689397 26.5423 1.00968 26.8885C1.32996 27.2348 1.71022 27.5094 2.12873 27.6967C2.54724 27.884 2.99579 27.9802 3.44874 27.98H17.7138L24.2335 31.905L22.7504 27.98H33.5513C35.4568 27.98 37 26.3134 37 24.2517V11.8234C37 9.76337 35.4584 8.09503 33.5513 8.09503H3.43332ZM15.89 10.28C16.192 10.2866 16.4829 10.4042 16.7148 10.6134C16.8501 10.7237 16.9619 10.8641 17.0427 11.0251C17.1236 11.1861 17.1716 11.364 17.1834 11.5467C17.2037 11.8181 17.1512 12.09 17.0324 12.33C16.4434 13.5084 15.9594 15.4867 15.5662 18.2334C15.187 20.9 15.0513 22.9767 15.1423 24.465C15.1731 24.8734 15.1114 25.2317 14.9604 25.5434C14.8858 25.7085 14.7726 25.8497 14.632 25.9529C14.4913 26.0561 14.3282 26.1178 14.1587 26.1317C13.7656 26.165 13.357 25.9684 12.9639 25.5284C11.5564 23.9734 10.4371 21.6517 9.62003 18.5617C8.88146 20.1244 8.15531 21.6939 7.44165 23.27C6.55057 25.12 5.79361 26.0667 5.15844 26.1167C4.7499 26.15 4.40303 25.7734 4.09932 24.9884C3.32849 22.845 2.49599 18.7084 1.60336 12.575C1.55711 12.15 1.63419 11.775 1.8454 11.48C2.05661 11.17 2.37574 11.0067 2.79815 10.9734C3.56899 10.9067 4.00836 11.3 4.11474 12.15C4.5834 15.5684 5.09832 18.4634 5.64253 20.8334L8.95557 14.0167C9.25774 13.395 9.63544 13.0667 10.0902 13.035C10.7547 12.985 11.1632 13.4434 11.3297 14.4084C11.709 16.5834 12.1931 18.4317 12.7666 20.0017C13.1597 15.8484 13.8257 12.855 14.763 11.0067C14.9912 10.55 15.3227 10.32 15.762 10.2884C15.8051 10.2839 15.8483 10.2817 15.8915 10.2817L15.89 10.28ZM21.6466 12.0517C21.904 12.0517 22.1754 12.085 22.4637 12.1517C22.9711 12.2559 23.4511 12.4797 23.8694 12.8073C24.2878 13.1348 24.6342 13.558 24.8841 14.0467C25.3682 14.93 25.6087 15.9934 25.6087 17.2684C25.6224 18.8998 25.2139 20.503 24.4293 21.8967C23.5228 23.5317 22.3419 24.35 20.8757 24.35C20.601 24.3477 20.3272 24.3148 20.0587 24.2517C18.9841 24.0067 18.1824 23.385 17.6382 22.355C17.1542 21.455 16.9121 20.3767 16.9121 19.1167C16.9121 17.4334 17.3052 15.895 18.0915 14.505C19.0149 12.87 20.1943 12.0517 21.6466 12.0517ZM31.1309 12.0517C31.3884 12.0517 31.6597 12.085 31.948 12.1517C33.021 12.395 33.8227 13.0184 34.3684 14.0467C34.8525 14.93 35.093 15.9934 35.093 17.2684C35.1067 18.8998 34.6982 20.503 33.9136 21.8967C33.0071 23.5317 31.8262 24.35 30.3601 24.35C30.0853 24.3477 29.8115 24.3148 29.543 24.2517C28.4684 24.0067 27.6668 23.385 27.1226 22.355C26.6385 21.455 26.3964 20.3767 26.3964 19.1167C26.3964 17.4334 26.7896 15.895 27.5758 14.505C28.4993 12.87 29.6787 12.0517 31.1309 12.0517ZM21.7159 14.7934C21.2427 14.79 20.7817 15.1284 20.3454 15.83C19.9588 16.4134 19.686 17.0757 19.5437 17.7767C19.4686 18.1692 19.433 18.5693 19.4374 18.97C19.4374 19.4434 19.5299 19.9517 19.7102 20.4584C19.9369 21.095 20.239 21.44 20.6029 21.5217C20.9806 21.6034 21.3891 21.4217 21.8285 20.9967C22.3881 20.4584 22.7658 19.6567 22.977 18.5767C23.0541 18.2017 23.0834 17.7934 23.0834 17.3667C23.0783 16.8568 22.9863 16.3522 22.8121 15.8784C22.5839 15.2417 22.2817 14.8984 21.9179 14.8167C21.8514 14.8022 21.7838 14.7944 21.7159 14.7934ZM31.2003 14.7934C30.727 14.79 30.266 15.1284 29.8297 15.83C29.4431 16.4134 29.1703 17.0757 29.0281 17.7767C28.9525 18.1517 28.9217 18.56 28.9217 18.97C28.9217 19.4434 29.0142 19.9517 29.1946 20.4584C29.4212 21.095 29.7249 21.44 30.0872 21.5217C30.4649 21.6034 30.8734 21.4217 31.3128 20.9967C31.8724 20.4584 32.2502 19.6567 32.4614 18.5767C32.523 18.2017 32.5693 17.7934 32.5693 17.3667C32.5637 16.8567 32.4712 16.3521 32.2964 15.8784C32.0682 15.2417 31.7661 14.8984 31.4022 14.8167C31.3357 14.8022 31.2681 14.7944 31.2003 14.7934Z" fill="white"/>
</g>
<defs>
<clipPath id="clip0_0_28">
<rect width="37" height="40" fill="white"/>
</clipPath>
</defs>
</svg>
